<?xml version="1.0" encoding="utf-8"?>
<!-- Generator: Adobe Illustrator 21.0.2, SVG Export Plug-In . SVG Version: 6.00 Build 0)  -->
<svg version="1.1" id="Calque_1" xmlns="http://www.w3.org/2000/svg" xmlns:xlink="http://www.w3.org/1999/xlink" x="0px" y="0px"
	 viewBox="0 0 2496.9 2500" style="enable-background:new 0 0 2496.9 2500;" xml:space="preserve">
<style type="text/css">
	.st0{fill:#2F406A;}
	.st1{fill:#2379BD;}
	.st2{fill:#03AFEF;}
</style>
<path class="st0" d="M2017.1,797v900.2l-764.9,452.6l-6.9,6.3v336.5l6.9,6.5l1077.3-622.3V622.4l-10.2-2.5l-303.7,169.8L2017.1,797"
	/>
<path class="st1" d="M484.7,1704.6l767.4,445.2v349.3L167.5,1874.3V624.8l11.1-1.7l302.8,176.1l3.3,10.1L484.7,1704.6"/>
<path class="st2" d="M484.7,809.3L167.5,624.8L1249.7,0.1l1079.8,622.3L2017.1,797l-767.4-437.8L484.7,809.3"/>
<path class="st0" d="M1239,1601.6l-8.3-8.5v-338l8.3-4.3l2-8.3l289.8-169l8.9,2v348.3L1239,1601.6"/>
<path class="st1" d="M933.3,1434.6v-361.7l8.4-0.4l294.8,171.6l2.5,6.8v350.8L933.3,1434.6"/>
<path class="st2" d="M1234,895l-300.7,177.9l305.7,177.9l300.7-175.4L1234,895"/>
<path class="st0" d="M864.8,1822.2l-8.3-8.5v-338l8.3-4.3l2-8.3l289.8-169l8.9,2v348.3L864.8,1822.2"/>
<path class="st1" d="M559.1,1655.1v-361.7l8.4-0.4l294.8,171.6l2.5,6.8v350.8L559.1,1655.1"/>
<path class="st2" d="M859.8,1115.5l-300.7,177.9l305.7,177.9l300.7-175.4L859.8,1115.5"/>
<path class="st0" d="M1639.9,1830.5l-8.3-8.5v-338l8.3-4.3l2-8.3l289.8-169l8.9,2v348.3L1639.9,1830.5"/>
<path class="st1" d="M1334.2,1663.5v-361.7l8.4-0.4l294.8,171.6l2.5,6.8v350.8L1334.2,1663.5"/>
<path class="st2" d="M1634.9,1123.9l-300.7,177.9l305.7,177.9l300.7-175.4L1634.9,1123.9"/>
<path class="st0" d="M1265.7,2051l-8.3-8.5v-338l8.3-4.3l2-8.3l289.8-169l8.9,2v348.3L1265.7,2051"/>
<path class="st1" d="M960,1884v-361.7l8.4-0.4l294.8,171.6l2.5,6.8V2051L960,1884"/>
<path class="st2" d="M1260.7,1344.4L960,1522.3l305.7,177.9l300.7-175.4L1260.7,1344.4"/>
<path class="st0" d="M1239,1122.2l-8.3-8.5v-338l8.3-4.3l2-8.3l289.8-169l8.9,2v348.3L1239,1122.2"/>
<path class="st1" d="M933.3,955.2V593.5l8.4-0.4l294.8,171.6l2.5,6.8v350.8L933.3,955.2"/>
<path class="st2" d="M1234,415.6L933.3,593.5L1239,771.4L1539.7,596L1234,415.6"/>
<path class="st0" d="M864.8,1342.7l-8.3-8.5v-338l8.3-4.3l2-8.3l289.8-169l8.9,2v348.3L864.8,1342.7"/>
<path class="st1" d="M559.1,1175.7V814l8.4-0.4l294.8,171.6l2.5,6.8v350.8L559.1,1175.7"/>
<path class="st2" d="M859.8,636.1L559.1,814l305.7,177.9l300.7-175.4L859.8,636.1"/>
<path class="st0" d="M1639.9,1351.1l-8.3-8.5v-338l8.3-4.3l2-8.3l289.8-169l8.9,2v348.3L1639.9,1351.1"/>
<path class="st1" d="M1334.2,1184V822.4l8.4-0.4l294.8,171.6l2.5,6.8v350.8L1334.2,1184"/>
<path class="st2" d="M1634.9,644.5l-300.7,177.9l305.7,177.9l300.7-175.4L1634.9,644.5"/>
<path class="st0" d="M1265.7,1571.6l-8.3-8.5v-338l8.3-4.3l2-8.3l289.8-169l8.9,2v348.3L1265.7,1571.6"/>
<path class="st1" d="M960,1404.5v-361.7l8.4-0.4l294.8,171.6l2.5,6.8v350.8L960,1404.5"/>
<path class="st2" d="M1260.7,865L960,1042.9l305.7,177.9l300.7-175.4L1260.7,865"/>
</svg>
